<?xml version="1.0" encoding="utf-8"?>
<svg viewBox="0 0 512 512" width="512" height="512" xmlns="http://www.w3.org/2000/svg">
  <text style="font-size: 36; font-family: Roboto; white-space: pre;"/>
  <text style="font-size: 36; font-family: Roboto; white-space: pre;" transform="matrix(1, 0, 0, 1, 370.06205, 289.097479)"/>
  <g id="moreinfo" transform="matrix(23.272728, 0, 0, 23.272728, -69.818185, -6586.18178)">
    <g id="XMLID_144_">
      <path id="XMLID_145_" class="st7" d="M14,305c-6.1,0-11-4.9-11-11s4.9-11,11-11s11,4.9,11,11S20.1,305,14,305z M14,285c-5,0-9,4-9,9s4,9,9,9s9-4,9-9S19,285,14,285z" style="fill: rgb(152, 0, 0);"/>
    </g>
    <g id="XMLID_142_">
      <path id="XMLID_143_" class="st7" d="M14,300c-0.3,0-0.5-0.1-0.7-0.3c-0.2-0.2-0.3-0.5-0.3-0.7s0.1-0.5,0.3-0.7c0.4-0.4,1-0.4,1.4,0c0.2,0.2,0.3,0.4,0.3,0.7c0,0.3-0.1,0.5-0.3,0.7C14.5,299.9,14.3,300,14,300z" style="fill: rgb(152, 0, 0);"/>
    </g>
    <g id="XMLID_140_">
      <path id="XMLID_141_" class="st7" d="M14,297c-0.6,0-1-0.4-1-1c0-2.1,1.2-3,2.1-3.8c0.7-0.6,0.9-0.8,0.9-1.2c0-1.1-0.9-2-2-2s-2,0.9-2,2c0,0.6-0.4,1-1,1s-1-0.4-1-1c0-2.2,1.8-4,4-4s4,1.8,4,4c0,1.4-0.9,2.2-1.7,2.8c-0.8,0.6-1.3,1.1-1.3,2.2 C15,296.6,14.6,297,14,297z" style="fill: rgb(152, 0, 0);"/>
    </g>
  </g>
</svg>