<?xml version="1.0" encoding="utf-8"?>
<svg viewBox="0 0 512 512" width="512" height="512" xmlns="http://www.w3.org/2000/svg">
  <text style="font-size: 36; font-family: Roboto; white-space: pre;"/>
  <text style="font-size: 36; font-family: Roboto; white-space: pre;" transform="matrix(1, 0, 0, 1, 370.06205, 289.097479)"/>
  <g id="moreinfo-on" transform="matrix(23.272728, 0, 0, 23.272728, -721.454544, -6586.18178)">
    <path id="XMLID_148_" class="st7" d="M42,283c-6.1,0-11,4.9-11,11s4.9,11,11,11s11-4.9,11-11S48.1,283,42,283z M42.7,299.7c-0.2,0.2-0.5,0.3-0.7,0.3s-0.5-0.1-0.7-0.3c-0.2-0.2-0.3-0.5-0.3-0.7c0-0.3,0.1-0.5,0.3-0.7c0.4-0.4,1-0.4,1.4,0c0.2,0.2,0.3,0.5,0.3,0.7S42.9,299.5,42.7,299.7z M44.3,293.8c-0.8,0.6-1.3,1.1-1.3,2.2c0,0.6-0.4,1-1,1s-1-0.4-1-1c0-2.1,1.2-3,2.1-3.8c0.7-0.6,0.9-0.8,0.9-1.2c0-1.1-0.9-2-2-2s-2,0.9-2,2c0,0.6-0.4,1-1,1s-1-0.4-1-1c0-2.2,1.8-4,4-4s4,1.8,4,4C46,292.4,45.1,293.2,44.3,293.8z" style="fill: rgb(152, 0, 0);"/>
  </g>
</svg>